<?xml version="1.0" encoding="iso-8859-1"?>
<!-- Generator: Adobe Illustrator 19.0.0, SVG Export Plug-In . SVG Version: 6.00 Build 0)  -->
<svg version="1.1" id="Layer_1" xmlns="http://www.w3.org/2000/svg" xmlns:xlink="http://www.w3.org/1999/xlink" x="0px" y="0px"
	 viewBox="0 0 297 297" style="enable-background:new 0 0 297 297;" xml:space="preserve">
<g>
	<g>
		<g>
			<circle style="fill:#4F2B4F;" cx="148.5" cy="148.5" r="148.5"/>
		</g>
	</g>
	<path style="fill:#462147;" d="M184.266,45.013l-44.074,212.992l36.297,36.35c65.773-12.547,116.151-68.47,120.233-136.872
		L184.266,45.013z"/>
	<g>
		<path style="fill:#F9B65F;" d="M148.5,260.725L148.5,260.725c7.757,0,14.045-6.288,14.045-14.045v-54.621h-28.091v54.621
			C134.455,254.436,140.743,260.725,148.5,260.725z"/>
	</g>
	<g>
		<path style="fill:#FFA800;" d="M148.667,192.058v68.658c7.679-0.091,13.878-6.336,13.878-14.037v-54.621H148.667z"/>
	</g>
	<g>
		<path style="fill:#D95459;" d="M97,81.775c0-28.736,23.535-51.974,52.38-51.493C177.618,30.754,200,54.381,200,82.623v105.621
			c0,7.565-6.133,13.698-13.698,13.698h-75.603c-7.565,0-13.698-6.133-13.698-13.698V81.775H97z"/>
	</g>
	<g>
		<path style="fill:#B23F47;" d="M149.38,30.283c-0.239-0.004-0.475,0.007-0.713,0.006v171.653h37.635
			c7.565,0,13.698-6.133,13.698-13.698V82.623C200,54.381,177.618,30.754,149.38,30.283z"/>
	</g>
</g>
<g>
</g>
<g>
</g>
<g>
</g>
<g>
</g>
<g>
</g>
<g>
</g>
<g>
</g>
<g>
</g>
<g>
</g>
<g>
</g>
<g>
</g>
<g>
</g>
<g>
</g>
<g>
</g>
<g>
</g>
</svg>
