<svg xmlns="http://www.w3.org/2000/svg" xmlns:xlink="http://www.w3.org/1999/xlink" xmlns:fi="http://pattern.flaticon.com/" x="0" y="0" width="443" height="295" viewBox="0 0 443 295"><rect x="0px" y="0px" width="100%" height="100%" opacity="1" fill="#a9c6d2"/><defs><g transform="matrix(0.17578125 0 0 0.17578125 45.00000373363514 218)" id="L1_51"><path d="M204.492,58.988h-58.328c-11.887,0-21.557-9.715-21.557-21.657c0-11.941,9.671-21.657,21.557-21.657h20.279    c4.329,0,7.837-3.508,7.837-7.837c0-4.329-3.508-7.837-7.837-7.837h-20.279c-20.528,0-37.231,16.746-37.231,37.33    c0,20.585,16.702,37.329,37.231,37.329h58.328c9.26,0,16.794,7.57,16.794,16.876v16.045c0,4.329,3.508,7.837,7.837,7.837    c4.329,0,7.837-3.508,7.837-7.837V91.537C236.959,73.589,222.395,58.988,204.492,58.988z"/><path d="M201.158,0h-11.577c-4.329,0-7.837,3.508-7.837,7.837c0,4.329,3.508,7.837,7.837,7.837h11.577    c4.255,0,7.717,3.462,7.717,7.717c-0.001,4.255-3.462,7.717-7.717,7.717h-25.163c-4.329,0-7.837,3.508-7.837,7.837    s3.508,7.837,7.837,7.837h25.163c12.897,0,23.39-10.493,23.39-23.39C224.547,10.493,214.054,0,201.158,0z"/><path d="M162.376,292.89c-22.666,0-41.106,18.49-41.106,41.219s18.439,41.219,41.106,41.219c4.329,0,7.837-3.508,7.837-7.837    s-3.508-7.837-7.837-7.837c-14.024,0-25.433-11.46-25.433-25.546c0-14.085,11.409-25.546,25.433-25.546    c14.025,0,25.435,11.46,25.435,25.546c0,4.329,3.508,7.837,7.837,7.837c4.329,0,7.837-3.508,7.837-7.837    C203.484,311.381,185.044,292.89,162.376,292.89z"/><path d="M441.113,318.694h-52.41c-4.329,0-7.837,3.508-7.837,7.837c0,4.329,3.508,7.837,7.837,7.837h20.525v6.792H367.7    c-4.329,0-7.837,3.508-7.837,7.837c0,4.329,3.508,7.837,7.837,7.837h41.526v9.404h-30.8c-4.329,0-7.837,3.508-7.837,7.837    c0,4.329,3.508,7.837,7.837,7.837h30.8v38.661c0,21.076-11.518,39.5-28.58,49.347H250.77c-17.062-9.847-28.58-28.272-28.58-49.347    v-86.204h115.313h14.629c4.329,0,7.837-3.508,7.837-7.837c0-4.329-3.508-7.837-7.837-7.837h-14.629h-55.064l1.932-23.303    c0.181-2.184-0.56-4.344-2.045-5.955c-1.484-1.612-3.575-2.53-5.766-2.53h-1.11l6.764-68.76h2.594    c12.423,0,22.529-10.128,22.529-22.578v-11.793c0-12.45-10.106-22.579-22.529-22.579h-7.835v-10.836    c0-12.45-10.106-22.578-22.529-22.578H70.306c-12.423,0-22.529,10.128-22.529,22.578v10.836h-7.835    c-12.423,0-22.529,10.129-22.529,22.579v11.793c0,12.45,10.106,22.578,22.529,22.578h2.594l6.764,68.76h-1.109    c-2.182,0-4.264,0.909-5.747,2.509c-1.483,1.599-2.233,3.745-2.068,5.919l6.784,89.521c0.309,4.087,3.717,7.245,7.815,7.245h4.671    l9.79,99.536C70.577,503.245,80.216,512,91.855,512h318.539c15.849,0,28.743-12.895,28.743-28.744    c0-7.354-5.984-13.338-13.339-13.338h-20.322c10.96-11.802,18.059-27.234,19.242-44.278h16.394    c29.486,0,53.474-23.988,53.474-53.474C494.586,342.682,470.599,318.694,441.113,318.694z M239.489,318.694h-8.339    c-1.261-5.652-3.182-11.057-5.706-16.114h15.267L239.489,318.694z M266.711,318.694h-11.503l1.221-16.114h11.617L266.711,318.694z     M39.944,202.473c-3.779,0-6.856-3.098-6.856-6.905v-11.793c0-3.809,3.075-6.906,6.856-6.906h54.097    c4.329,0,7.837-3.508,7.837-7.837c0-4.329-3.508-7.837-7.837-7.837H63.452v-10.836c0-3.807,3.075-6.905,6.856-6.905h147.171    c0.864,3.388,3.928,5.897,7.585,5.897h8.815c3.657,0,6.721-2.509,7.585-5.897h12.985c3.779,0,6.856,3.098,6.856,6.905v10.836    H129.568c-4.329,0-7.837,3.508-7.837,7.837c0,4.329,3.508,7.837,7.837,7.837h155.24c3.779,0,6.856,3.098,6.856,6.906v11.793    c0,3.808-3.075,6.905-6.856,6.905H39.944z M62.241,376.427l-5.595-73.847h9.785l5.595,73.847H62.241z M65.049,286.906    l-6.764-68.76h208.179l-6.764,68.76h-44.899c-12.914-14.414-31.629-23.5-52.427-23.5c-20.796,0-39.511,9.085-52.425,23.5H65.049z     M214.981,318.694h-0.628c-4.329,0-7.837,3.508-7.837,7.837v40.151c-9.986,13.609-26.049,22.457-44.141,22.457    c-30.226,0-54.816-24.686-54.816-55.03c0-30.344,24.591-55.03,54.816-55.03C187.272,279.08,208.325,295.833,214.981,318.694z     M105.942,376.427H87.746l-5.595-73.847h17.161c-4.741,9.5-7.424,20.204-7.424,31.53    C91.887,349.967,97.119,364.619,105.942,376.427z M191.284,483.256c0,4.705,1.144,9.146,3.157,13.071H91.855    c-3.54,0-6.472-2.675-6.821-6.224l-2.349-23.884h34.344c4.329,0,7.837-3.509,7.837-7.837c0-4.329-3.508-7.837-7.837-7.837H81.143    L75.394,392.1h46.728c11.423,8.001,25.296,12.712,40.254,12.712s28.833-4.711,40.255-12.712h3.886v28.471    c0,10.685,2.325,20.833,6.491,29.973h-60.452c-4.329,0-7.837,3.508-7.837,7.837c0,4.328,3.508,7.837,7.837,7.837h70.192    c1.026,1.265,2.081,2.507,3.19,3.701h-21.315C197.268,469.919,191.284,475.902,191.284,483.256z M423.254,485.592    c-1.103,6.096-6.45,10.734-12.86,10.734H220.029c-6.41,0-11.758-4.638-12.863-10.734H423.254z M441.113,409.968H424.9v-75.6    h16.213c20.843,0,37.8,16.957,37.8,37.8C478.913,393.01,461.955,409.968,441.113,409.968z"/></g><g transform="matrix(0.13671928644180298 0 0 0.13671928644180298 220.99999809741234 121)" id="L1_52"><path d="M415.673,369.915c-3.92-1.83-8.585-0.132-10.415,3.79c-2.424,5.198-5.161,10.317-8.131,15.217    c-2.245,3.699-1.066,8.518,2.635,10.763c1.271,0.77,2.673,1.138,4.057,1.138c2.648,0,5.234-1.343,6.707-3.773    c3.266-5.382,6.273-11.008,8.936-16.72C421.293,376.407,419.596,371.743,415.673,369.915z"/><path d="M427.844,309.225c-4.332-0.221-8.021,3.067-8.261,7.387c-0.732,13.141-3.126,26.136-7.113,38.622    c-1.317,4.125,0.959,8.535,5.081,9.85c0.793,0.253,1.596,0.373,2.385,0.373c3.319,0,6.4-2.124,7.464-5.455    c4.39-13.748,7.024-28.052,7.83-42.516C435.472,313.164,432.165,309.465,427.844,309.225z"/><path d="M449.119,463.261h-67.571c46.823-36.35,76.922-92.502,76.922-155.427c0-11.821-9.753-21.437-21.741-21.437h-2.353    c-0.93-15.041-10.021-28.048-23.445-34.154c0.349-2.141,0.525-4.314,0.525-6.509c0-22.257-18.12-40.364-40.391-40.364    c-2.414,0-4.794,0.21-7.13,0.628c-4.03-14.324-15.859-25.501-30.485-28.655c0.886-2.879,1.526-5.858,1.862-8.918    c0.726-6.604-2.12-13.238-7.426-17.31c-8.699-6.686-19.518-10.37-30.461-10.37c-6.456,0-12.73,1.239-18.648,3.681    c-10.058,4.151-18.211,11.492-23.434,20.624c-5.403-7.734-13.042-13.917-22.167-17.551c-5.899-2.347-12.128-3.537-18.512-3.537    c-11.102,0-22.014,3.712-30.727,10.455c-5.323,4.121-8.08,10.794-7.2,17.41c0.255,1.926,0.644,3.813,1.122,5.67    c-14.306,3.352-25.828,14.402-29.795,28.5c-2.336-0.417-4.717-0.628-7.129-0.628c-22.272,0-40.392,18.107-40.392,40.364    c0,2.194,0.176,4.367,0.525,6.509c-13.426,6.105-22.517,19.112-23.445,34.154h-2.355c-11.987,0-21.739,9.616-21.739,21.437    c0,62.925,30.1,119.077,76.922,155.427H62.879c-12.009,0-21.78,9.696-21.78,21.614v5.511c0,11.918,9.771,21.614,21.78,21.614    h386.24c12.009,0,21.779-9.696,21.779-21.614v-5.511C470.897,472.957,461.128,463.261,449.119,463.261z M284.756,158.916    c4.011-1.656,8.273-2.496,12.667-2.496c7.509,0,14.934,2.53,20.915,7.125c0.991,0.762,1.526,1.975,1.394,3.165    c-1.303,11.837-8.938,22.008-19.926,26.542c-4.012,1.657-8.273,2.497-12.667,2.497c-4.931,0-9.819-1.111-14.291-3.161    l21.907-9.046c4.001-1.652,5.904-6.235,4.253-10.235c-1.651-4-6.232-5.903-10.235-4.253l-22.293,9.206    C269.505,169.602,276.076,162.498,284.756,158.916z M193.528,166.816c5.981-4.629,13.485-7.176,21.134-7.176    c4.391,0,8.671,0.816,12.717,2.425c8.782,3.498,15.537,10.435,18.813,18.917l-22.579-8.988c-4.021-1.596-8.579,0.362-10.179,4.383    c-1.6,4.022,0.363,8.579,4.383,10.179l22.217,8.843c-4.463,2.018-9.362,3.096-14.325,3.096c-4.391,0-8.671-0.816-12.717-2.425    c-11.223-4.469-19.162-14.546-20.72-26.303C192.121,168.644,192.592,167.54,193.528,166.816z M455.224,490.386    c0,3.276-2.739,5.94-6.105,5.94H62.879c-3.368,0-6.106-2.666-6.106-5.94v-5.511c0-3.276,2.739-5.94,6.106-5.94h202.523    c4.329,0,7.837-3.509,7.837-7.837c0-4.329-3.508-7.837-7.837-7.837H158.044c-28.33-17.126-51.655-41.442-67.286-70.323h51.148    c4.329,0,7.837-3.508,7.837-7.837c0-4.329-3.508-7.837-7.837-7.837H84.878c-0.542,0-1.071,0.055-1.582,0.159    c-4.199-9.918-7.507-20.284-9.872-30.986h109.072c4.329,0,7.837-3.508,7.837-7.837c0-4.329-3.508-7.837-7.837-7.837H70.682    c-0.968-7.513-1.483-15.164-1.483-22.929c0-3.177,2.721-5.764,6.066-5.764h252.832c4.329,0,7.837-3.508,7.837-7.837    c0-4.329-3.508-7.837-7.837-7.837H93.342c1.061-10.416,8.538-19.063,18.93-21.487c9.766-2.276,3.94-12.87,3.94-19.174    c0-13.614,11.088-24.691,24.718-24.691c3.562,0,7.007,0.747,10.238,2.219c2.4,1.091,5.191,0.906,7.423-0.498    c2.233-1.405,3.609-3.838,3.662-6.475c0.253-12.491,9.994-22.8,22.202-24.054c5.428,8.128,13.286,14.63,22.74,18.394    c5.899,2.347,12.128,3.537,18.512,3.537c11.107,0,22.02-3.716,30.724-10.457c0.622-0.481,1.205-0.999,1.755-1.545    c8.425,5.981,18.63,9.257,28.949,9.257c6.457,0,12.732-1.24,18.649-3.683c8.143-3.36,15.042-8.807,20.147-15.608    c12.947,0.473,23.543,11.125,23.807,24.159c0.053,2.638,1.429,5.071,3.662,6.475c2.234,1.405,5.024,1.591,7.422,0.498    c3.231-1.472,6.676-2.219,10.239-2.219c13.63,0,24.717,11.077,24.717,24.691c0,6.343-5.843,16.893,3.941,19.174    c10.392,2.424,17.87,11.073,18.93,21.487h-50.85c-4.329,0-7.837,3.508-7.837,7.837c0,4.329,3.508,7.837,7.837,7.837h68.927    c3.346,0,6.068,2.586,6.068,5.764c0,65.602-35.574,123.224-88.846,155.426h-53.022c-4.329,0-7.837,3.508-7.837,7.837    c0,4.328,3.508,7.837,7.837,7.837h148.19c3.367,0,6.105,2.666,6.105,5.94V490.386z"/><path d="M396.387,110.192c-16.781-5.626-20.159-8.98-25.816-25.633c-1.079-3.178-4.065-5.315-7.421-5.315s-6.34,2.138-7.421,5.315    c-5.658,16.654-9.035,20.009-25.816,25.633c-3.194,1.07-5.346,4.063-5.346,7.43c0,3.368,2.152,6.359,5.346,7.43    c16.781,5.626,20.159,8.98,25.816,25.632c1.079,3.178,4.065,5.315,7.421,5.315c3.356,0,6.34-2.138,7.421-5.315    c5.657-16.654,9.035-20.008,25.816-25.632c3.194-1.071,5.346-4.063,5.346-7.43C401.732,114.253,399.58,111.263,396.387,110.192z     M363.15,129.018c-3.038-4.787-6.634-8.373-11.432-11.397c4.798-3.024,8.395-6.611,11.432-11.397    c3.038,4.786,6.634,8.372,11.432,11.397C369.783,120.646,366.187,124.231,363.15,129.018z"/><path d="M283.1,30.95c-16.782-5.626-20.159-8.98-25.815-25.632C256.205,2.138,253.222,0,249.866,0c-0.001,0-0.001,0-0.001,0    c-3.356,0-6.339,2.138-7.421,5.315c-5.659,16.654-9.037,20.008-25.818,25.633c-3.194,1.071-5.346,4.063-5.346,7.43    c0,3.369,2.153,6.359,5.346,7.431c16.781,5.626,20.159,8.98,25.818,25.632c1.08,3.179,4.065,5.315,7.422,5.315    c3.356,0,6.339-2.138,7.419-5.316c5.655-16.653,9.034-20.006,25.815-25.631c3.194-1.071,5.346-4.063,5.346-7.43    C288.446,35.011,286.293,32.021,283.1,30.95z M249.864,49.776c-3.038-4.786-6.635-8.373-11.433-11.397    c4.798-3.024,8.396-6.611,11.433-11.398c3.036,4.787,6.634,8.373,11.432,11.398C256.497,41.404,252.9,44.99,249.864,49.776z"/><path d="M185.3,109.488c-21.069-7.065-25.664-11.627-32.77-32.543c-1.08-3.178-4.065-5.315-7.42-5.315    c-3.357,0-6.34,2.138-7.421,5.316c-7.105,20.916-11.699,25.478-32.77,32.542c-3.194,1.071-5.346,4.063-5.346,7.43    c0,3.368,2.151,6.359,5.346,7.43c21.071,7.064,25.666,11.626,32.77,32.54c1.079,3.179,4.064,5.316,7.421,5.316    c3.356,0,6.339-2.138,7.42-5.315c7.107-20.916,11.701-25.478,32.77-32.541c3.194-1.071,5.346-4.063,5.346-7.43    C190.645,113.549,188.493,110.559,185.3,109.488z M145.111,134.398c-4.407-7.795-9.726-13.096-17.546-17.481    c7.819-4.385,13.138-9.688,17.546-17.482c4.406,7.794,9.727,13.097,17.545,17.482    C154.837,121.302,149.518,126.604,145.111,134.398z"/><path d="M280.605,229.133h-8.552c-4.428,0-8.016,3.587-8.016,8.011c0,4.424,3.588,8.01,8.016,8.01h8.552    c4.428,0,8.018-3.586,8.018-8.01C288.622,232.72,285.033,229.133,280.605,229.133z"/><path d="M153.911,254.767h-8.551c-4.428,0-8.018,3.586-8.018,8.01s3.589,8.01,8.018,8.01h8.551c4.427,0,8.018-3.586,8.018-8.01    C161.928,258.353,158.338,254.767,153.911,254.767z"/><ellipse cx="187px" cy="239px" rx="9px" ry="9px"/><ellipse cx="314px" cy="263px" rx="9px" ry="9px"/><path d="M241.327,257.176l-6.424-6.419c-1.774-1.772-4.651-1.773-6.425,0l-6.424,6.419c-1.775,1.773-1.773,4.648,0,6.421    l6.424,6.42c1.774,1.772,4.651,1.773,6.425,0l6.424-6.42C243.101,261.823,243.1,258.95,241.327,257.176z"/><path d="M369.325,240.875l-6.424-6.419c-1.775-1.772-4.652-1.773-6.425,0l-6.425,6.419c-1.774,1.773-1.773,4.648,0,6.421    l6.425,6.42c1.773,1.772,4.65,1.773,6.425,0l6.424-6.42C371.099,245.523,371.098,242.649,369.325,240.875z"/></g><g transform="matrix(0.1171877309679985 0 0 0.1171877309679985 51.00000041484918 42)" id="L1_57"><path d="M254.955,19.331h-1.045c-4.328,0-7.837,3.508-7.837,7.837c0,4.329,3.509,7.837,7.837,7.837h1.045    c4.329,0,7.837-3.508,7.837-7.837C262.791,22.838,259.284,19.331,254.955,19.331z"/><path d="M275.33,35.004h-1.045c-4.329,0-7.837,3.508-7.837,7.837c0,4.329,3.508,7.837,7.837,7.837h1.045    c4.329,0,7.837-3.508,7.837-7.837C283.167,38.512,279.659,35.004,275.33,35.004z"/><path d="M237.714,35.004h-1.045c-4.328,0-7.837,3.508-7.837,7.837c0,4.329,3.509,7.837,7.837,7.837h1.045    c4.328,0,7.837-3.508,7.837-7.837C245.551,38.512,242.042,35.004,237.714,35.004z"/><path d="M152.555,158.302h-9.404c-4.328,0-7.837,3.508-7.837,7.837c0,4.329,3.509,7.837,7.837,7.837h9.404    c4.328,0,7.837-3.508,7.837-7.837C160.391,161.81,156.883,158.302,152.555,158.302z"/><path d="M182.857,141.584h-9.404c-4.328,0-7.837,3.508-7.837,7.837s3.509,7.837,7.837,7.837h9.404    c4.328,0,7.837-3.508,7.837-7.837S187.185,141.584,182.857,141.584z"/><path d="M213.159,161.437h-9.404c-4.328,0-7.837,3.508-7.837,7.837c0,4.329,3.509,7.837,7.837,7.837h9.404    c4.328,0,7.837-3.508,7.837-7.837C220.995,164.944,217.487,161.437,213.159,161.437z"/><path d="M246.595,180.245h-9.404c-4.328,0-7.837,3.508-7.837,7.837c0,4.329,3.509,7.837,7.837,7.837h9.404    c4.328,0,7.837-3.508,7.837-7.837C254.432,183.753,250.923,180.245,246.595,180.245z"/><path d="M180.767,180.245h-9.404c-4.328,0-7.837,3.508-7.837,7.837c0,4.329,3.509,7.837,7.837,7.837h9.404    c4.328,0,7.837-3.508,7.837-7.837C188.604,183.753,185.095,180.245,180.767,180.245z"/><path d="M411.883,294.151c-3.745-2.17-8.539-0.898-10.712,2.846c-2.362,4.072-4.939,8.096-7.659,11.962    c-2.49,3.541-1.638,8.428,1.901,10.919c1.372,0.964,2.943,1.427,4.502,1.427c2.465,0,4.892-1.16,6.418-3.329    c2.98-4.238,5.805-8.65,8.396-13.113C416.899,301.12,415.625,296.324,411.883,294.151z"/><path d="M429.299,239.344c-4.25-0.792-8.341,2.029-9.127,6.287c-2.113,11.456-5.489,22.704-10.039,33.432    c-1.689,3.985,0.171,8.585,4.157,10.274c0.999,0.423,2.036,0.623,3.056,0.623c3.051,0,5.952-1.793,7.218-4.779    c4.995-11.778,8.703-24.13,11.023-36.709C436.371,244.216,433.557,240.129,429.299,239.344z"/><path d="M465.235,213.193c-2.689-2.745-6.357-4.399-10.194-4.658c-0.24-20.249-16.777-36.649-37.082-36.649    c-1.793,0-3.553,0.135-5.28,0.381c-12.68-22.937-34.206-40.481-60.055-48.159c-2.672-8.012-6.364-15.698-11.06-22.868    c-2.374-3.621-7.231-4.631-10.85-2.262c-3.621,2.372-4.634,7.23-2.262,10.85c2.235,3.412,4.195,6.963,5.892,10.622    c-3.635-0.389-7.327-0.596-11.065-0.596c-25.773,0-49.332,9.483-67.273,25.081c-17.943-15.6-41.509-25.081-67.285-25.081    c-3.721,0-7.391,0.211-11.009,0.597c13.565-29.143,43.538-49.461,78.288-49.461c18.854,0,36.754,5.867,51.762,16.967    c3.479,2.574,8.387,1.839,10.961-1.641c2.574-3.481,1.839-8.387-1.641-10.961c-3.982-2.945-8.144-5.56-12.442-7.872    c0.46-3.191,0.7-6.437,0.7-9.715C305.341,25.915,283.205,0,255.999,0c-18.866,0-35.285,12.466-43.584,30.726    c-2.217-2.026-4.638-3.859-7.255-5.454c-7.509-4.579-16.146-6.999-24.979-6.999c-8.187,0-16.29,2.102-23.432,6.077    c-5.75,3.201-9.454,9.277-9.668,15.853c-0.564,17.299,8.242,33.631,22.983,42.619c3.476,2.12,7.201,3.752,11.071,4.913    c-9.681,10.36-17.176,22.72-21.753,36.379c-13.27,3.94-25.401,10.475-35.784,19.012c-4.84-2.324-10.255-3.635-15.973-3.635    c-20.454,0-37.094,16.64-37.094,37.094c0,3.59,0.53,7.056,1.487,10.34c-5.683,5.678-9.527,13.187-10.586,21.553h-3.428    c-4.211,0-8.307,1.718-11.239,4.711c-2.971,3.035-4.578,7.199-4.409,11.421c1.039,26.143,6.908,51.48,17.448,75.306    c1.75,3.959,6.379,5.745,10.337,3.997c3.959-1.751,5.748-6.379,3.997-10.337c-9.714-21.962-15.135-45.318-16.113-69.423    l395.954,0.005c-2.034,50.147-23.514,97.035-60.492,132.048c-0.296,0.281-0.6,0.551-0.898,0.831    c-7.857-5.557-17.215-8.565-27.002-8.565c-14.764,0-28.304,6.891-37.019,18.085c-8.714-11.194-22.254-18.085-37.018-18.085    c-14.764,0-28.304,6.891-37.019,18.085c-8.714-11.194-22.254-18.085-37.019-18.085c-14.763,0-28.303,6.891-37.018,18.085    c-8.714-11.194-22.254-18.085-37.018-18.085c-9.021,0-17.78,2.606-25.285,7.42c-9.982-9.493-18.951-19.982-26.657-31.19    c-2.452-3.565-7.33-4.47-10.898-2.018c-3.566,2.452-4.469,7.331-2.018,10.897c8.414,12.236,18.212,23.677,29.121,34.007    c32.457,30.73,73.159,50.276,116.954,56.602v16.347c-23.194,8.912-41.639,27.53-49.959,50.749    c-1.713,4.779-0.957,10.095,2.018,14.216c2.933,4.068,7.696,6.496,12.74,6.496h79.046c4.329,0,7.837-3.508,7.837-7.837    c0-4.329-3.508-7.837-7.837-7.837l-78.962,0.007c1.251-3.449,2.797-6.76,4.572-9.934h45.132c4.328,0,7.837-3.508,7.837-7.837    c0-4.329-3.509-7.837-7.837-7.837h-33.134c7.944-7.791,17.752-13.752,28.689-17.121c3.287-1.013,5.53-4.05,5.53-7.49v-20.233    c5.181,0.368,10.394,0.556,15.633,0.556s10.453-0.188,15.633-0.556v20.233c0,3.44,2.242,6.477,5.53,7.49    c20.998,6.467,37.898,22.427,45.26,42.721h-16.266c-4.329,0-7.837,3.508-7.837,7.837c0,4.329,3.508,7.837,7.837,7.837h16.352    c5.045,0,9.808-2.428,12.74-6.495c2.975-4.124,3.729-9.439,2.018-14.218c-8.318-23.219-26.764-41.837-49.96-50.749V424.19    c43.797-6.326,84.499-25.872,116.953-56.602c40.006-37.881,63.228-88.657,65.385-142.978    C469.812,220.386,468.204,216.224,465.235,213.193z M255.999,15.673c18.565,0,33.668,18.883,33.668,42.095    c0,1.047-0.039,2.087-0.101,3.12c-10.673-3.667-21.964-5.571-33.566-5.571c-11.757,0-23.048,1.985-33.562,5.611    c-0.064-1.047-0.106-2.1-0.106-3.16C222.332,34.557,237.435,15.673,255.999,15.673z M178.225,69.443    c-9.928-6.054-15.858-17.062-15.478-28.729c0.036-1.108,0.659-2.13,1.627-2.669c4.816-2.68,10.283-4.098,15.808-4.098    c5.954,0,11.769,1.628,16.819,4.707c4.205,2.564,7.682,6.023,10.272,10.038c-0.346,2.55-0.537,5.16-0.586,7.809l-14.525-8.858    c-3.696-2.253-8.518-1.084-10.771,2.611c-2.254,3.695-1.085,8.517,2.611,10.771l16.895,10.302c-1.396,0.89-2.77,1.81-4.119,2.765    c-0.577,0.031-1.155,0.06-1.735,0.06C189.089,74.151,183.275,72.523,178.225,69.443z M107.624,155.167    c1.148,0,2.273,0.102,3.371,0.279c-5.38,6.268-9.978,13.202-13.678,20.642c-3.86,0.094-7.573,0.777-11.057,1.968    c-0.033-0.486-0.056-0.974-0.056-1.467C86.204,164.776,95.812,155.167,107.624,155.167z M77.329,208.481    c2.142-9.566,10.687-16.742,20.891-16.742s18.749,7.176,20.891,16.742H77.329z M135.009,208.481    c-1.649-13.037-10.084-23.979-21.649-29.174c14.649-26.065,42.918-43.779,75.361-43.779c43.496,0,79.533,31.814,85.229,72.953    H135.009z M380.877,208.481h-91.11c-2.29-19.757-10.457-37.782-22.733-52.345c15.09-12.824,34.751-20.609,56.245-20.609    c31.837,0,59.672,17.05,74.548,42.32C387.76,184.381,381.048,195.653,380.877,208.481z M396.564,208.481    c0.269-11.58,9.752-20.922,21.395-20.922c11.643,0,21.127,9.342,21.395,20.922H396.564z M255.999,410.765    c-46.031,0-89.918-15.49-125.252-43.896c3.973-1.777,8.303-2.722,12.729-2.722c13.41,0,25.302,8.536,29.593,21.239    c1.075,3.186,4.063,5.33,7.424,5.33s6.349-2.144,7.424-5.33c4.29-12.703,16.183-21.239,29.593-21.239    c13.41,0,25.303,8.536,29.594,21.239c1.075,3.186,4.063,5.33,7.424,5.33c3.362,0,6.349-2.144,7.424-5.33    c4.291-12.703,16.183-21.239,29.594-21.239c13.41,0,25.302,8.536,29.593,21.239c1.075,3.186,4.063,5.33,7.424,5.33    c3.362,0,6.349-2.144,7.424-5.33c4.29-12.703,16.183-21.239,29.594-21.239c5.151,0,10.124,1.251,14.567,3.602    C345.008,395.597,301.554,410.765,255.999,410.765z"/></g></defs><g fi:class="KUsePattern"><pattern id="pattern_L1_51" width="350" height="350" patternUnits="userSpaceOnUse"><use xlink:href="#L1_51" x="-350" y="-350"/><use xlink:href="#L1_51" x="0" y="-350"/><use xlink:href="#L1_51" x="350" y="-350"/><use xlink:href="#L1_51" x="-350" y="0"/><use xlink:href="#L1_51" x="0" y="0"/><use xlink:href="#L1_51" x="350" y="0"/><use xlink:href="#L1_51" x="-350" y="350"/><use xlink:href="#L1_51" x="0" y="350"/><use xlink:href="#L1_51" x="350" y="350"/></pattern><rect x="0" y="0" width="100%" height="100%" fill="url(#pattern_L1_51)"/></g><g fi:class="KUsePattern"><pattern id="pattern_L1_52" width="350" height="350" patternUnits="userSpaceOnUse"><use xlink:href="#L1_52" x="-350" y="-350"/><use xlink:href="#L1_52" x="0" y="-350"/><use xlink:href="#L1_52" x="350" y="-350"/><use xlink:href="#L1_52" x="-350" y="0"/><use xlink:href="#L1_52" x="0" y="0"/><use xlink:href="#L1_52" x="350" y="0"/><use xlink:href="#L1_52" x="-350" y="350"/><use xlink:href="#L1_52" x="0" y="350"/><use xlink:href="#L1_52" x="350" y="350"/></pattern><rect x="0" y="0" width="100%" height="100%" fill="url(#pattern_L1_52)"/></g><g fi:class="KUsePattern"><pattern id="pattern_L1_57" width="350" height="350" patternUnits="userSpaceOnUse"><use xlink:href="#L1_57" x="-350" y="-350"/><use xlink:href="#L1_57" x="0" y="-350"/><use xlink:href="#L1_57" x="350" y="-350"/><use xlink:href="#L1_57" x="-350" y="0"/><use xlink:href="#L1_57" x="0" y="0"/><use xlink:href="#L1_57" x="350" y="0"/><use xlink:href="#L1_57" x="-350" y="350"/><use xlink:href="#L1_57" x="0" y="350"/><use xlink:href="#L1_57" x="350" y="350"/></pattern><rect x="0" y="0" width="100%" height="100%" fill="url(#pattern_L1_57)"/></g></svg>
